<svg width="192.6" height="86.5" viewBox="0 0 192.6 86.5" xmlns="http://www.w3.org/2000/svg"><g id="svgGroup" stroke-linecap="round" fill-rule="evenodd" font-size="9pt" stroke="#d93644" stroke-width="0.25mm" fill="#d93644" style="stroke:#d93644;stroke-width:0.25mm;fill:#d93644"><path d="M 82.321 3.711 A 0.491 0.491 0 0 0 82.2 3.6 Q 74.4 3.6 67.45 6.6 A 46.12 46.12 0 0 0 66.588 6.982 A 40.585 40.585 0 0 0 55.35 14.5 Q 50.2 19.4 47.2 25.5 A 32.289 32.289 0 0 0 46.257 27.6 A 26.912 26.912 0 0 0 44.2 37.8 Q 44.2 43.8 47.45 47.35 A 11.087 11.087 0 0 0 51.893 50.335 A 13.434 13.434 0 0 0 56 51.1 A 117.068 117.068 0 0 1 55.508 52.224 Q 51.92 60.3 47.85 66.1 A 56.362 56.362 0 0 1 43.795 71.247 A 42.191 42.191 0 0 1 38.6 76.2 A 38.027 38.027 0 0 1 36.743 77.589 A 32.555 32.555 0 0 1 28.25 81.9 Q 22.8 83.7 16.9 83.7 A 33.609 33.609 0 0 1 16.259 83.694 Q 12.214 83.617 9.545 82.553 A 8.748 8.748 0 0 1 6.55 80.65 A 9.998 9.998 0 0 1 3.965 76.209 A 13.298 13.298 0 0 1 3.5 72.6 A 14.397 14.397 0 0 1 3.753 69.914 A 16.247 16.247 0 0 1 5.3 65.5 A 21.797 21.797 0 0 1 6.847 62.945 A 25.503 25.503 0 0 1 10.3 59 A 29.627 29.627 0 0 1 12.869 56.855 A 35.321 35.321 0 0 1 17.9 53.75 A 32.824 32.824 0 0 1 20.446 52.583 A 37.094 37.094 0 0 1 27.6 50.5 Q 28.1 50.3 28.1 49.9 A 0.56 0.56 0 0 0 28.096 49.831 Q 28.064 49.574 27.782 49.517 A 0.917 0.917 0 0 0 27.6 49.5 Q 21.6 50.6 16.55 53.3 Q 11.5 56 7.85 59.6 A 34.445 34.445 0 0 0 6.071 61.49 A 28.885 28.885 0 0 0 2.1 67.3 Q 0 71.4 0 75.2 A 13.834 13.834 0 0 0 0.001 75.387 A 10.819 10.819 0 0 0 3.3 83.25 Q 6.6 86.5 13.5 86.5 Q 20.1 86.5 26.45 84.35 A 39.564 39.564 0 0 0 29.785 83.049 A 44.202 44.202 0 0 0 38.6 77.8 A 52.739 52.739 0 0 0 43.566 73.505 A 66.342 66.342 0 0 0 49.6 66.7 Q 54.8 60 59.1 50.8 Q 60.788 50.519 62.095 49.984 A 8.667 8.667 0 0 0 63.9 49 A 1.756 1.756 0 0 0 63.908 48.982 Q 64.15 48.398 63.679 48.314 A 1.024 1.024 0 0 0 63.5 48.3 A 4.599 4.599 0 0 1 63.444 48.337 Q 63.044 48.595 62.439 48.874 A 16.224 16.224 0 0 1 61.8 49.15 Q 60.7 49.6 59.5 49.8 A 122.948 122.948 0 0 0 60.352 47.866 A 137.908 137.908 0 0 0 63.8 39 A 134.629 134.629 0 0 0 65.258 34.598 A 161.445 161.445 0 0 0 67.5 26.7 Q 68.8 21.5 70.15 17.95 A 44.686 44.686 0 0 1 70.759 16.431 Q 71.272 15.217 71.806 14.175 A 23.034 23.034 0 0 1 73 12.1 A 17.856 17.856 0 0 1 73.292 11.666 Q 73.931 10.747 74.613 10.021 A 10.084 10.084 0 0 1 76.25 8.6 Q 78 7.4 80.1 6.8 A 2.32 2.32 0 0 0 80.391 6.624 Q 80.539 6.521 80.697 6.383 A 5.832 5.832 0 0 0 81 6.1 A 8.636 8.636 0 0 0 81.368 5.709 A 6.915 6.915 0 0 0 81.85 5.1 A 6.205 6.205 0 0 0 82.009 4.862 Q 82.124 4.681 82.209 4.514 A 2.971 2.971 0 0 0 82.35 4.2 A 0.992 0.992 0 0 0 82.361 4.169 Q 82.456 3.889 82.321 3.711 Z M 119.558 34.15 A 20.968 20.968 0 0 0 115.3 31.6 A 12.47 12.47 0 0 0 115.846 31.588 A 13.108 13.108 0 0 0 120.25 30.6 Q 122.7 29.6 124.6 27.8 Q 126.5 26 127.65 23.5 A 12.15 12.15 0 0 0 128.305 21.722 A 13.634 13.634 0 0 0 128.8 18 Q 128.8 15.6 127.9 13.35 A 11.711 11.711 0 0 0 127.004 11.571 A 13.886 13.886 0 0 0 125.1 9.15 Q 123.2 7.2 120.25 5.85 Q 117.3 4.5 113.3 3.9 Q 114.8 2.8 116.5 2.05 Q 118.2 1.3 119.9 0.8 Q 120.173 0.691 120.297 0.551 A 0.371 0.371 0 0 0 120.4 0.3 A 0.25 0.25 0 0 0 120.34 0.128 Q 120.259 0.037 120.07 0.011 A 1.246 1.246 0 0 0 119.9 0 A 29.712 29.712 0 0 0 116.338 1.086 A 23.074 23.074 0 0 0 111.3 3.7 A 13.75 13.75 0 0 0 111.076 3.674 A 12.308 12.308 0 0 0 109.75 3.6 L 108.2 3.6 A 35.354 35.354 0 0 0 106.013 3.667 A 30.09 30.09 0 0 0 99.05 4.9 A 34.233 34.233 0 0 0 97.231 5.512 A 29.387 29.387 0 0 0 91.4 8.4 A 29.364 29.364 0 0 0 90.875 8.748 A 26.065 26.065 0 0 0 85.55 13.5 A 24.497 24.497 0 0 0 84.077 15.425 A 19.816 19.816 0 0 0 81.9 19.5 A 1.161 1.161 0 0 0 81.893 19.532 Q 81.861 19.676 81.877 19.786 A 0.352 0.352 0 0 0 82.05 20.05 A 0.599 0.599 0 0 0 82.064 20.058 Q 82.255 20.166 82.416 20.067 A 0.454 0.454 0 0 0 82.5 20 Q 84 16.7 86.3 14.1 Q 88.6 11.5 91.5 9.7 Q 94.4 7.9 97.65 6.95 Q 100.9 6 104.2 6 L 106.2 6 Q 107.1 6 108 6.2 A 30.619 30.619 0 0 0 105.026 9.303 A 35.964 35.964 0 0 0 100.85 15.6 Q 97.9 21.2 95.8 28.6 A 235.013 235.013 0 0 1 94.504 33.123 Q 93.868 35.255 93.257 37.131 A 109.508 109.508 0 0 1 91.85 41.2 Q 90 46.2 88.15 49.3 A 23.344 23.344 0 0 1 87.316 50.601 Q 86.613 51.619 85.883 52.417 A 11.187 11.187 0 0 1 84.25 53.9 Q 82.2 55.4 79.6 55.9 Q 76.9 56.4 74.95 55.85 A 6.226 6.226 0 0 1 74.084 55.533 Q 73.274 55.168 72.472 54.55 A 12.072 12.072 0 0 1 71.1 53.3 A 1.821 1.821 0 0 0 70.652 53.147 Q 70.322 53.079 69.927 53.11 A 3.767 3.767 0 0 0 69.6 53.15 A 7.164 7.164 0 0 0 69.159 53.238 A 6.12 6.12 0 0 0 67.95 53.65 A 5.974 5.974 0 0 0 67.302 54 A 4.358 4.358 0 0 0 66.7 54.45 Q 66.2 54.9 66.5 55.3 Q 73.5 61.2 81.85 64.6 A 44.121 44.121 0 0 0 89.534 66.925 A 53.84 53.84 0 0 0 100.5 68 Q 113.3 68 119.75 62.7 A 16.906 16.906 0 0 0 125.216 54.83 A 20.686 20.686 0 0 0 126.2 48.3 A 18.159 18.159 0 0 0 125.879 44.892 A 19.927 19.927 0 0 0 123.6 38.8 A 15.703 15.703 0 0 0 119.558 34.15 Z M 183.358 34.15 A 20.968 20.968 0 0 0 179.1 31.6 A 12.47 12.47 0 0 0 179.646 31.588 A 13.108 13.108 0 0 0 184.05 30.6 Q 186.5 29.6 188.4 27.8 Q 190.3 26 191.45 23.5 A 12.15 12.15 0 0 0 192.105 21.722 A 13.634 13.634 0 0 0 192.6 18 Q 192.6 15.6 191.7 13.35 A 11.711 11.711 0 0 0 190.804 11.571 A 13.886 13.886 0 0 0 188.9 9.15 Q 187 7.2 184.05 5.85 Q 181.1 4.5 177.1 3.9 Q 178.6 2.8 180.3 2.05 Q 182 1.3 183.7 0.8 Q 183.973 0.691 184.097 0.551 A 0.371 0.371 0 0 0 184.2 0.3 A 0.25 0.25 0 0 0 184.14 0.128 Q 184.059 0.037 183.87 0.011 A 1.246 1.246 0 0 0 183.7 0 A 29.712 29.712 0 0 0 180.138 1.086 A 23.074 23.074 0 0 0 175.1 3.7 A 13.75 13.75 0 0 0 174.876 3.674 A 12.308 12.308 0 0 0 173.55 3.6 L 172 3.6 A 35.354 35.354 0 0 0 169.813 3.667 A 30.09 30.09 0 0 0 162.85 4.9 A 34.233 34.233 0 0 0 161.031 5.512 A 29.387 29.387 0 0 0 155.2 8.4 A 29.364 29.364 0 0 0 154.675 8.748 A 26.065 26.065 0 0 0 149.35 13.5 A 24.497 24.497 0 0 0 147.877 15.425 A 19.816 19.816 0 0 0 145.7 19.5 A 1.161 1.161 0 0 0 145.693 19.532 Q 145.661 19.676 145.677 19.786 A 0.352 0.352 0 0 0 145.85 20.05 A 0.599 0.599 0 0 0 145.864 20.058 Q 146.055 20.166 146.216 20.067 A 0.454 0.454 0 0 0 146.3 20 Q 147.8 16.7 150.1 14.1 Q 152.4 11.5 155.3 9.7 Q 158.2 7.9 161.45 6.95 Q 164.7 6 168 6 L 170 6 Q 170.9 6 171.8 6.2 A 30.619 30.619 0 0 0 168.826 9.303 A 35.964 35.964 0 0 0 164.65 15.6 Q 161.7 21.2 159.6 28.6 A 235.013 235.013 0 0 1 158.304 33.123 Q 157.668 35.255 157.057 37.131 A 109.508 109.508 0 0 1 155.65 41.2 Q 153.8 46.2 151.95 49.3 A 23.344 23.344 0 0 1 151.116 50.601 Q 150.413 51.619 149.683 52.417 A 11.187 11.187 0 0 1 148.05 53.9 Q 146 55.4 143.4 55.9 Q 140.7 56.4 138.75 55.85 A 6.226 6.226 0 0 1 137.884 55.533 Q 137.074 55.168 136.272 54.55 A 12.072 12.072 0 0 1 134.9 53.3 A 1.821 1.821 0 0 0 134.452 53.147 Q 134.122 53.079 133.727 53.11 A 3.767 3.767 0 0 0 133.4 53.15 A 7.164 7.164 0 0 0 132.959 53.238 A 6.12 6.12 0 0 0 131.75 53.65 A 5.974 5.974 0 0 0 131.102 54 A 4.358 4.358 0 0 0 130.5 54.45 Q 130 54.9 130.3 55.3 Q 137.3 61.2 145.65 64.6 A 44.121 44.121 0 0 0 153.334 66.925 A 53.84 53.84 0 0 0 164.3 68 Q 177.1 68 183.55 62.7 A 16.906 16.906 0 0 0 189.016 54.83 A 20.686 20.686 0 0 0 190 48.3 A 18.159 18.159 0 0 0 189.679 44.892 A 19.927 19.927 0 0 0 187.4 38.8 A 15.703 15.703 0 0 0 183.358 34.15 Z M 102.8 66.5 Q 107.3 66.5 110.85 65.25 A 20.148 20.148 0 0 0 114.311 63.668 A 16.202 16.202 0 0 0 116.85 61.85 Q 119.3 59.7 120.55 56.8 A 15.53 15.53 0 0 0 121.785 51.238 A 18.066 18.066 0 0 0 121.8 50.5 A 20.84 20.84 0 0 0 120.469 42.816 Q 118.228 37.126 112.214 34.06 A 27.779 27.779 0 0 0 106.7 32 A 0.455 0.455 0 0 1 106.607 31.869 Q 106.489 31.615 106.762 31.249 A 1.815 1.815 0 0 1 106.8 31.2 Q 107.185 30.719 107.847 30.33 A 5.435 5.435 0 0 1 107.9 30.3 A 5.313 5.313 0 0 1 108.905 29.861 A 6.559 6.559 0 0 1 109.5 29.7 A 6.357 6.357 0 0 1 109.965 29.614 Q 110.46 29.542 110.845 29.58 A 2.315 2.315 0 0 1 111 29.6 A 9.854 9.854 0 0 0 111.759 29.902 Q 112.14 30.035 112.49 30.116 A 5.649 5.649 0 0 0 112.65 30.15 A 6.497 6.497 0 0 0 113.219 30.235 Q 113.516 30.268 113.861 30.284 A 15.866 15.866 0 0 0 114.6 30.3 A 8.908 8.908 0 0 0 118.041 29.596 A 10.163 10.163 0 0 0 118.15 29.55 Q 119.9 28.8 121.25 27.4 Q 122.6 26 123.45 24.15 A 9.318 9.318 0 0 0 124.233 21.258 A 11.504 11.504 0 0 0 124.3 20 A 12.208 12.208 0 0 0 121.088 11.715 A 15.726 15.726 0 0 0 120.85 11.45 A 13.747 13.747 0 0 0 116.953 8.555 Q 115.193 7.652 112.995 7.036 A 30.336 30.336 0 0 0 110.2 6.4 A 31.738 31.738 0 0 0 106.618 10.866 A 41.4 41.4 0 0 0 104.3 14.8 A 46.426 46.426 0 0 0 102.038 19.927 Q 101.041 22.588 100.204 25.652 A 79.656 79.656 0 0 0 99.9 26.8 A 148.096 148.096 0 0 1 98.012 33.17 Q 96.312 38.438 94.55 42.25 Q 92.571 46.532 90.514 49.494 A 26.828 26.828 0 0 1 88.9 51.6 Q 86.538 54.369 84.044 55.745 A 11.875 11.875 0 0 1 82.9 56.3 Q 79.8 57.6 76.6 57.7 A 43.761 43.761 0 0 0 84.026 62.128 A 53.663 53.663 0 0 0 88.5 64 Q 95.3 66.5 102.8 66.5 Z M 166.6 66.5 Q 171.1 66.5 174.65 65.25 A 20.148 20.148 0 0 0 178.111 63.668 A 16.202 16.202 0 0 0 180.65 61.85 Q 183.1 59.7 184.35 56.8 A 15.53 15.53 0 0 0 185.585 51.238 A 18.066 18.066 0 0 0 185.6 50.5 A 20.84 20.84 0 0 0 184.269 42.816 Q 182.028 37.126 176.014 34.06 A 27.779 27.779 0 0 0 170.5 32 A 0.455 0.455 0 0 1 170.407 31.869 Q 170.289 31.615 170.562 31.249 A 1.815 1.815 0 0 1 170.6 31.2 Q 170.985 30.719 171.647 30.33 A 5.435 5.435 0 0 1 171.7 30.3 A 5.313 5.313 0 0 1 172.705 29.861 A 6.559 6.559 0 0 1 173.3 29.7 A 6.357 6.357 0 0 1 173.765 29.614 Q 174.26 29.542 174.645 29.58 A 2.315 2.315 0 0 1 174.8 29.6 A 9.854 9.854 0 0 0 175.559 29.902 Q 175.94 30.035 176.29 30.116 A 5.649 5.649 0 0 0 176.45 30.15 A 6.497 6.497 0 0 0 177.019 30.235 Q 177.316 30.268 177.661 30.284 A 15.866 15.866 0 0 0 178.4 30.3 A 8.908 8.908 0 0 0 181.841 29.596 A 10.163 10.163 0 0 0 181.95 29.55 Q 183.7 28.8 185.05 27.4 Q 186.4 26 187.25 24.15 A 9.318 9.318 0 0 0 188.033 21.258 A 11.504 11.504 0 0 0 188.1 20 A 12.208 12.208 0 0 0 184.888 11.715 A 15.726 15.726 0 0 0 184.65 11.45 A 13.747 13.747 0 0 0 180.753 8.555 Q 178.993 7.652 176.795 7.036 A 30.336 30.336 0 0 0 174 6.4 A 31.738 31.738 0 0 0 170.418 10.866 A 41.4 41.4 0 0 0 168.1 14.8 A 46.426 46.426 0 0 0 165.838 19.927 Q 164.841 22.588 164.004 25.652 A 79.656 79.656 0 0 0 163.7 26.8 A 148.096 148.096 0 0 1 161.812 33.17 Q 160.112 38.438 158.35 42.25 Q 156.371 46.532 154.314 49.494 A 26.828 26.828 0 0 1 152.7 51.6 Q 150.338 54.369 147.844 55.745 A 11.875 11.875 0 0 1 146.7 56.3 Q 143.6 57.6 140.4 57.7 A 43.761 43.761 0 0 0 147.826 62.128 A 53.663 53.663 0 0 0 152.3 64 Q 159.1 66.5 166.6 66.5 Z M 64.919 23.332 A 77.205 77.205 0 0 0 63.3 28.9 A 245.079 245.079 0 0 1 62.873 30.494 Q 61.37 36.026 59.759 40.91 A 145.219 145.219 0 0 1 56.4 50.1 A 14.624 14.624 0 0 1 54.121 49.793 A 10.345 10.345 0 0 1 48.4 46.5 A 10.212 10.212 0 0 1 47.28 44.953 Q 45.5 41.944 45.5 37.4 A 21.742 21.742 0 0 1 45.972 32.939 A 26.815 26.815 0 0 1 47.65 27.75 A 30.402 30.402 0 0 1 48.677 25.618 A 33.284 33.284 0 0 1 53.75 18.55 A 33.419 33.419 0 0 1 56.38 16.016 A 37.911 37.911 0 0 1 63.3 11.3 A 33.342 33.342 0 0 1 66.974 9.612 A 37.771 37.771 0 0 1 75.8 7.4 A 15.723 15.723 0 0 0 75.048 7.869 Q 73.04 9.202 71.284 11.237 A 26.55 26.55 0 0 0 68.6 15 A 34.256 34.256 0 0 0 66.887 18.29 Q 65.842 20.575 64.919 23.332 Z" vector-effect="non-scaling-stroke"/></g></svg>