<svg width="316.437" height="92.4" viewBox="0 0 316.437 92.4" xmlns="http://www.w3.org/2000/svg"><g id="svgGroup" stroke-linecap="round" fill-rule="evenodd" font-size="9pt" stroke="#000" stroke-width="0.25mm" fill="black" style="stroke:#000;stroke-width:0.25mm;fill:black"><path d="M 82.321 3.711 A 0.491 0.491 0 0 0 82.2 3.6 Q 74.4 3.6 67.45 6.6 A 46.12 46.12 0 0 0 66.588 6.982 A 40.585 40.585 0 0 0 55.35 14.5 Q 50.2 19.4 47.2 25.5 A 32.289 32.289 0 0 0 46.257 27.6 A 26.912 26.912 0 0 0 44.2 37.8 Q 44.2 43.8 47.45 47.35 A 11.087 11.087 0 0 0 51.893 50.335 A 13.434 13.434 0 0 0 56 51.1 A 117.068 117.068 0 0 1 55.508 52.224 Q 51.92 60.3 47.85 66.1 A 56.362 56.362 0 0 1 43.795 71.247 A 42.191 42.191 0 0 1 38.6 76.2 A 38.027 38.027 0 0 1 36.743 77.589 A 32.555 32.555 0 0 1 28.25 81.9 Q 22.8 83.7 16.9 83.7 A 33.609 33.609 0 0 1 16.259 83.694 Q 12.214 83.617 9.545 82.553 A 8.748 8.748 0 0 1 6.55 80.65 A 9.998 9.998 0 0 1 3.965 76.209 A 13.298 13.298 0 0 1 3.5 72.6 A 14.397 14.397 0 0 1 3.753 69.914 A 16.247 16.247 0 0 1 5.3 65.5 A 21.797 21.797 0 0 1 6.847 62.945 A 25.503 25.503 0 0 1 10.3 59 A 29.627 29.627 0 0 1 12.869 56.855 A 35.321 35.321 0 0 1 17.9 53.75 A 32.824 32.824 0 0 1 20.446 52.583 A 37.094 37.094 0 0 1 27.6 50.5 Q 28.1 50.3 28.1 49.9 A 0.56 0.56 0 0 0 28.096 49.831 Q 28.064 49.574 27.782 49.517 A 0.917 0.917 0 0 0 27.6 49.5 Q 21.6 50.6 16.55 53.3 Q 11.5 56 7.85 59.6 A 34.445 34.445 0 0 0 6.071 61.49 A 28.885 28.885 0 0 0 2.1 67.3 Q 0 71.4 0 75.2 A 13.834 13.834 0 0 0 0.001 75.387 A 10.819 10.819 0 0 0 3.3 83.25 Q 6.6 86.5 13.5 86.5 Q 20.1 86.5 26.45 84.35 A 39.564 39.564 0 0 0 29.785 83.049 A 44.202 44.202 0 0 0 38.6 77.8 A 52.739 52.739 0 0 0 43.566 73.505 A 66.342 66.342 0 0 0 49.6 66.7 Q 54.8 60 59.1 50.8 Q 60.788 50.519 62.095 49.984 A 8.667 8.667 0 0 0 63.9 49 A 1.756 1.756 0 0 0 63.908 48.982 Q 64.15 48.398 63.679 48.314 A 1.024 1.024 0 0 0 63.5 48.3 A 4.599 4.599 0 0 1 63.444 48.337 Q 63.044 48.595 62.439 48.874 A 16.224 16.224 0 0 1 61.8 49.15 Q 60.7 49.6 59.5 49.8 A 122.948 122.948 0 0 0 60.352 47.866 A 137.908 137.908 0 0 0 63.8 39 A 134.629 134.629 0 0 0 65.258 34.598 A 161.445 161.445 0 0 0 67.5 26.7 Q 68.8 21.5 70.15 17.95 A 44.686 44.686 0 0 1 70.759 16.431 Q 71.272 15.217 71.806 14.175 A 23.034 23.034 0 0 1 73 12.1 A 17.856 17.856 0 0 1 73.292 11.666 Q 73.931 10.747 74.613 10.021 A 10.084 10.084 0 0 1 76.25 8.6 Q 78 7.4 80.1 6.8 A 2.32 2.32 0 0 0 80.391 6.624 Q 80.539 6.521 80.697 6.383 A 5.832 5.832 0 0 0 81 6.1 A 8.636 8.636 0 0 0 81.368 5.709 A 6.915 6.915 0 0 0 81.85 5.1 A 6.205 6.205 0 0 0 82.009 4.862 Q 82.124 4.681 82.209 4.514 A 2.971 2.971 0 0 0 82.35 4.2 A 0.992 0.992 0 0 0 82.361 4.169 Q 82.456 3.889 82.321 3.711 Z M 119.558 34.15 A 20.968 20.968 0 0 0 115.3 31.6 A 12.47 12.47 0 0 0 115.846 31.588 A 13.108 13.108 0 0 0 120.25 30.6 Q 122.7 29.6 124.6 27.8 Q 126.5 26 127.65 23.5 A 12.15 12.15 0 0 0 128.305 21.722 A 13.634 13.634 0 0 0 128.8 18 Q 128.8 15.6 127.9 13.35 A 11.711 11.711 0 0 0 127.004 11.571 A 13.886 13.886 0 0 0 125.1 9.15 Q 123.2 7.2 120.25 5.85 Q 117.3 4.5 113.3 3.9 Q 114.8 2.8 116.5 2.05 Q 118.2 1.3 119.9 0.8 Q 120.173 0.691 120.297 0.551 A 0.371 0.371 0 0 0 120.4 0.3 A 0.25 0.25 0 0 0 120.34 0.128 Q 120.259 0.037 120.07 0.011 A 1.246 1.246 0 0 0 119.9 0 A 29.712 29.712 0 0 0 116.338 1.086 A 23.074 23.074 0 0 0 111.3 3.7 A 13.75 13.75 0 0 0 111.076 3.674 A 12.308 12.308 0 0 0 109.75 3.6 L 108.2 3.6 A 35.354 35.354 0 0 0 106.013 3.667 A 30.09 30.09 0 0 0 99.05 4.9 A 34.233 34.233 0 0 0 97.231 5.512 A 29.387 29.387 0 0 0 91.4 8.4 A 29.364 29.364 0 0 0 90.875 8.748 A 26.065 26.065 0 0 0 85.55 13.5 A 24.497 24.497 0 0 0 84.077 15.425 A 19.816 19.816 0 0 0 81.9 19.5 A 1.161 1.161 0 0 0 81.893 19.532 Q 81.861 19.676 81.877 19.786 A 0.352 0.352 0 0 0 82.05 20.05 A 0.599 0.599 0 0 0 82.064 20.058 Q 82.255 20.166 82.416 20.067 A 0.454 0.454 0 0 0 82.5 20 Q 84 16.7 86.3 14.1 Q 88.6 11.5 91.5 9.7 Q 94.4 7.9 97.65 6.95 Q 100.9 6 104.2 6 L 106.2 6 Q 107.1 6 108 6.2 A 30.619 30.619 0 0 0 105.026 9.303 A 35.964 35.964 0 0 0 100.85 15.6 Q 97.9 21.2 95.8 28.6 A 235.013 235.013 0 0 1 94.504 33.123 Q 93.868 35.255 93.257 37.131 A 109.508 109.508 0 0 1 91.85 41.2 Q 90 46.2 88.15 49.3 A 23.344 23.344 0 0 1 87.316 50.601 Q 86.613 51.619 85.883 52.417 A 11.187 11.187 0 0 1 84.25 53.9 Q 82.2 55.4 79.6 55.9 Q 76.9 56.4 74.95 55.85 A 6.226 6.226 0 0 1 74.084 55.533 Q 73.274 55.168 72.472 54.55 A 12.072 12.072 0 0 1 71.1 53.3 A 1.821 1.821 0 0 0 70.652 53.147 Q 70.322 53.079 69.927 53.11 A 3.767 3.767 0 0 0 69.6 53.15 A 7.164 7.164 0 0 0 69.159 53.238 A 6.12 6.12 0 0 0 67.95 53.65 A 5.974 5.974 0 0 0 67.302 54 A 4.358 4.358 0 0 0 66.7 54.45 Q 66.2 54.9 66.5 55.3 Q 73.5 61.2 81.85 64.6 A 44.121 44.121 0 0 0 89.534 66.925 A 53.84 53.84 0 0 0 100.5 68 Q 113.3 68 119.75 62.7 A 16.906 16.906 0 0 0 125.216 54.83 A 20.686 20.686 0 0 0 126.2 48.3 A 18.159 18.159 0 0 0 125.879 44.892 A 19.927 19.927 0 0 0 123.6 38.8 A 15.703 15.703 0 0 0 119.558 34.15 Z M 183.358 34.15 A 20.968 20.968 0 0 0 179.1 31.6 A 12.47 12.47 0 0 0 179.646 31.588 A 13.108 13.108 0 0 0 184.05 30.6 Q 186.5 29.6 188.4 27.8 Q 190.3 26 191.45 23.5 A 12.15 12.15 0 0 0 192.105 21.722 A 13.634 13.634 0 0 0 192.6 18 Q 192.6 15.6 191.7 13.35 A 11.711 11.711 0 0 0 190.804 11.571 A 13.886 13.886 0 0 0 188.9 9.15 Q 187 7.2 184.05 5.85 Q 181.1 4.5 177.1 3.9 Q 178.6 2.8 180.3 2.05 Q 182 1.3 183.7 0.8 Q 183.973 0.691 184.097 0.551 A 0.371 0.371 0 0 0 184.2 0.3 A 0.25 0.25 0 0 0 184.14 0.128 Q 184.059 0.037 183.87 0.011 A 1.246 1.246 0 0 0 183.7 0 A 29.712 29.712 0 0 0 180.138 1.086 A 23.074 23.074 0 0 0 175.1 3.7 A 13.75 13.75 0 0 0 174.876 3.674 A 12.308 12.308 0 0 0 173.55 3.6 L 172 3.6 A 35.354 35.354 0 0 0 169.813 3.667 A 30.09 30.09 0 0 0 162.85 4.9 A 34.233 34.233 0 0 0 161.031 5.512 A 29.387 29.387 0 0 0 155.2 8.4 A 29.364 29.364 0 0 0 154.675 8.748 A 26.065 26.065 0 0 0 149.35 13.5 A 24.497 24.497 0 0 0 147.877 15.425 A 19.816 19.816 0 0 0 145.7 19.5 A 1.161 1.161 0 0 0 145.693 19.532 Q 145.661 19.676 145.677 19.786 A 0.352 0.352 0 0 0 145.85 20.05 A 0.599 0.599 0 0 0 145.864 20.058 Q 146.055 20.166 146.216 20.067 A 0.454 0.454 0 0 0 146.3 20 Q 147.8 16.7 150.1 14.1 Q 152.4 11.5 155.3 9.7 Q 158.2 7.9 161.45 6.95 Q 164.7 6 168 6 L 170 6 Q 170.9 6 171.8 6.2 A 30.619 30.619 0 0 0 168.826 9.303 A 35.964 35.964 0 0 0 164.65 15.6 Q 161.7 21.2 159.6 28.6 A 235.013 235.013 0 0 1 158.304 33.123 Q 157.668 35.255 157.057 37.131 A 109.508 109.508 0 0 1 155.65 41.2 Q 153.8 46.2 151.95 49.3 A 23.344 23.344 0 0 1 151.116 50.601 Q 150.413 51.619 149.683 52.417 A 11.187 11.187 0 0 1 148.05 53.9 Q 146 55.4 143.4 55.9 Q 140.7 56.4 138.75 55.85 A 6.226 6.226 0 0 1 137.884 55.533 Q 137.074 55.168 136.272 54.55 A 12.072 12.072 0 0 1 134.9 53.3 A 1.821 1.821 0 0 0 134.452 53.147 Q 134.122 53.079 133.727 53.11 A 3.767 3.767 0 0 0 133.4 53.15 A 7.164 7.164 0 0 0 132.959 53.238 A 6.12 6.12 0 0 0 131.75 53.65 A 5.974 5.974 0 0 0 131.102 54 A 4.358 4.358 0 0 0 130.5 54.45 Q 130 54.9 130.3 55.3 Q 137.3 61.2 145.65 64.6 A 44.121 44.121 0 0 0 153.334 66.925 A 53.84 53.84 0 0 0 164.3 68 Q 177.1 68 183.55 62.7 A 16.906 16.906 0 0 0 189.016 54.83 A 20.686 20.686 0 0 0 190 48.3 A 18.159 18.159 0 0 0 189.679 44.892 A 19.927 19.927 0 0 0 187.4 38.8 A 15.703 15.703 0 0 0 183.358 34.15 Z M 312.8 44.15 A 3.425 3.425 0 0 0 312.767 44.179 Q 312.396 44.513 312.3 44.8 A 28.093 28.093 0 0 1 311.826 46.065 Q 311.387 47.159 310.804 48.382 A 58.938 58.938 0 0 1 309.55 50.85 Q 307.7 54.3 305.45 57.35 Q 303.2 60.4 300.95 62.55 A 15.179 15.179 0 0 1 300.291 63.145 Q 299.167 64.1 298.22 64.469 A 3.096 3.096 0 0 1 297.1 64.7 Q 295.571 64.7 295.272 62.887 A 6.106 6.106 0 0 1 295.2 61.9 A 15.053 15.053 0 0 1 295.206 61.494 Q 295.23 60.601 295.358 59.604 A 26.405 26.405 0 0 1 295.7 57.6 A 31.756 31.756 0 0 1 295.797 57.15 A 34.733 34.733 0 0 1 297.1 52.75 Q 298 50.3 299.25 47.85 Q 300.5 45.4 302 43.4 Q 302.166 42.652 301.504 42.526 A 1.628 1.628 0 0 0 301.2 42.5 Q 298.9 43.7 296.5 45.5 A 54.139 54.139 0 0 0 295.065 46.612 Q 293.652 47.748 292.7 48.7 Q 292.538 48.943 292.671 49.218 A 0.9 0.9 0 0 0 292.75 49.35 A 0.831 0.831 0 0 0 292.823 49.439 Q 293.007 49.633 293.216 49.546 A 0.496 0.496 0 0 0 293.3 49.5 A 16.306 16.306 0 0 1 293.697 49.117 Q 294.381 48.477 295.3 47.75 A 79.147 79.147 0 0 1 296.186 47.059 A 66.377 66.377 0 0 1 297.6 46 Q 296.2 48.2 295.05 50.55 A 39.641 39.641 0 0 0 294.633 51.43 A 35.147 35.147 0 0 0 293.15 55.2 A 39.143 39.143 0 0 0 292.756 56.482 A 33.602 33.602 0 0 0 292 59.65 A 25.375 25.375 0 0 0 291.713 61.589 A 18.932 18.932 0 0 0 291.6 63.6 Q 291.6 64.917 291.836 65.879 A 4.869 4.869 0 0 0 292.2 66.9 A 2.786 2.786 0 0 0 292.366 67.189 Q 292.967 68.1 294.1 68.1 Q 296.413 67.883 299.221 65.839 A 25.878 25.878 0 0 0 301.45 64 Q 303.784 61.863 306.008 59.029 A 58.651 58.651 0 0 0 309.4 54.2 A 920.638 920.638 0 0 1 309.126 54.947 A 834.646 834.646 0 0 1 307.25 60 Q 306.2 62.8 305.1 66.1 A 144.271 144.271 0 0 1 303.49 70.303 Q 301.734 74.669 300.05 77.9 A 49.029 49.029 0 0 1 299.158 79.536 Q 297.121 83.106 294.95 85.4 A 18.11 18.11 0 0 1 292.574 87.525 A 13.158 13.158 0 0 1 289.35 89.3 A 16.745 16.745 0 0 1 287.06 89.97 A 19.505 19.505 0 0 1 282.9 90.4 A 16.517 16.517 0 0 1 281.518 90.344 Q 277.648 90.019 275.6 87.8 A 8.712 8.712 0 0 1 273.563 84.023 A 11.96 11.96 0 0 1 273.2 81 Q 273.2 78.6 274.8 76.7 A 0.296 0.296 0 0 0 274.889 76.483 Q 274.889 76.322 274.75 76.1 A 1.179 1.179 0 0 0 274.735 76.077 Q 274.525 75.757 274.28 75.857 A 0.45 0.45 0 0 0 274.2 75.9 A 11.207 11.207 0 0 0 273.239 76.707 A 8.987 8.987 0 0 0 271.25 79.4 A 10.723 10.723 0 0 0 270.6 81.114 A 7.745 7.745 0 0 0 270.3 83.2 A 10.899 10.899 0 0 0 270.303 83.443 A 8.703 8.703 0 0 0 273.05 89.75 A 8.231 8.231 0 0 0 274.973 91.124 Q 276.319 91.825 278.037 92.141 A 16.961 16.961 0 0 0 281.1 92.4 Q 284.9 92.4 288.5 91.1 A 19.311 19.311 0 0 0 291.827 89.515 A 24.384 24.384 0 0 0 295.45 86.85 A 26.359 26.359 0 0 0 295.949 86.399 Q 297.572 84.895 299.124 82.962 A 44.432 44.432 0 0 0 301.85 79.15 Q 303.613 76.404 305.26 72.906 A 83.588 83.588 0 0 0 307.6 67.4 A 734.621 734.621 0 0 0 308.781 64.278 A 650.933 650.933 0 0 0 312.1 55.25 A 3212.24 3212.24 0 0 0 312.231 54.884 A 3499.168 3499.168 0 0 0 316.4 43.2 Q 316.569 42.607 315.95 42.516 A 1.732 1.732 0 0 0 315.7 42.5 A 0.922 0.922 0 0 0 315.571 42.51 Q 315.291 42.55 314.85 42.75 A 5.677 5.677 0 0 0 314.438 42.959 A 6.773 6.773 0 0 0 313.75 43.4 Q 313.2 43.8 312.8 44.15 Z M 102.8 66.5 Q 107.3 66.5 110.85 65.25 A 20.148 20.148 0 0 0 114.311 63.668 A 16.202 16.202 0 0 0 116.85 61.85 Q 119.3 59.7 120.55 56.8 A 15.53 15.53 0 0 0 121.785 51.238 A 18.066 18.066 0 0 0 121.8 50.5 A 20.84 20.84 0 0 0 120.469 42.816 Q 118.228 37.126 112.214 34.06 A 27.779 27.779 0 0 0 106.7 32 A 0.455 0.455 0 0 1 106.607 31.869 Q 106.489 31.615 106.762 31.249 A 1.815 1.815 0 0 1 106.8 31.2 Q 107.185 30.719 107.847 30.33 A 5.435 5.435 0 0 1 107.9 30.3 A 5.313 5.313 0 0 1 108.905 29.861 A 6.559 6.559 0 0 1 109.5 29.7 A 6.357 6.357 0 0 1 109.965 29.614 Q 110.46 29.542 110.845 29.58 A 2.315 2.315 0 0 1 111 29.6 A 9.854 9.854 0 0 0 111.759 29.902 Q 112.14 30.035 112.49 30.116 A 5.649 5.649 0 0 0 112.65 30.15 A 6.497 6.497 0 0 0 113.219 30.235 Q 113.516 30.268 113.861 30.284 A 15.866 15.866 0 0 0 114.6 30.3 A 8.908 8.908 0 0 0 118.041 29.596 A 10.163 10.163 0 0 0 118.15 29.55 Q 119.9 28.8 121.25 27.4 Q 122.6 26 123.45 24.15 A 9.318 9.318 0 0 0 124.233 21.258 A 11.504 11.504 0 0 0 124.3 20 A 12.208 12.208 0 0 0 121.088 11.715 A 15.726 15.726 0 0 0 120.85 11.45 A 13.747 13.747 0 0 0 116.953 8.555 Q 115.193 7.652 112.995 7.036 A 30.336 30.336 0 0 0 110.2 6.4 A 31.738 31.738 0 0 0 106.618 10.866 A 41.4 41.4 0 0 0 104.3 14.8 A 46.426 46.426 0 0 0 102.038 19.927 Q 101.041 22.588 100.204 25.652 A 79.656 79.656 0 0 0 99.9 26.8 A 148.096 148.096 0 0 1 98.012 33.17 Q 96.312 38.438 94.55 42.25 Q 92.571 46.532 90.514 49.494 A 26.828 26.828 0 0 1 88.9 51.6 Q 86.538 54.369 84.044 55.745 A 11.875 11.875 0 0 1 82.9 56.3 Q 79.8 57.6 76.6 57.7 A 43.761 43.761 0 0 0 84.026 62.128 A 53.663 53.663 0 0 0 88.5 64 Q 95.3 66.5 102.8 66.5 Z M 166.6 66.5 Q 171.1 66.5 174.65 65.25 A 20.148 20.148 0 0 0 178.111 63.668 A 16.202 16.202 0 0 0 180.65 61.85 Q 183.1 59.7 184.35 56.8 A 15.53 15.53 0 0 0 185.585 51.238 A 18.066 18.066 0 0 0 185.6 50.5 A 20.84 20.84 0 0 0 184.269 42.816 Q 182.028 37.126 176.014 34.06 A 27.779 27.779 0 0 0 170.5 32 A 0.455 0.455 0 0 1 170.407 31.869 Q 170.289 31.615 170.562 31.249 A 1.815 1.815 0 0 1 170.6 31.2 Q 170.985 30.719 171.647 30.33 A 5.435 5.435 0 0 1 171.7 30.3 A 5.313 5.313 0 0 1 172.705 29.861 A 6.559 6.559 0 0 1 173.3 29.7 A 6.357 6.357 0 0 1 173.765 29.614 Q 174.26 29.542 174.645 29.58 A 2.315 2.315 0 0 1 174.8 29.6 A 9.854 9.854 0 0 0 175.559 29.902 Q 175.94 30.035 176.29 30.116 A 5.649 5.649 0 0 0 176.45 30.15 A 6.497 6.497 0 0 0 177.019 30.235 Q 177.316 30.268 177.661 30.284 A 15.866 15.866 0 0 0 178.4 30.3 A 8.908 8.908 0 0 0 181.841 29.596 A 10.163 10.163 0 0 0 181.95 29.55 Q 183.7 28.8 185.05 27.4 Q 186.4 26 187.25 24.15 A 9.318 9.318 0 0 0 188.033 21.258 A 11.504 11.504 0 0 0 188.1 20 A 12.208 12.208 0 0 0 184.888 11.715 A 15.726 15.726 0 0 0 184.65 11.45 A 13.747 13.747 0 0 0 180.753 8.555 Q 178.993 7.652 176.795 7.036 A 30.336 30.336 0 0 0 174 6.4 A 31.738 31.738 0 0 0 170.418 10.866 A 41.4 41.4 0 0 0 168.1 14.8 A 46.426 46.426 0 0 0 165.838 19.927 Q 164.841 22.588 164.004 25.652 A 79.656 79.656 0 0 0 163.7 26.8 A 148.096 148.096 0 0 1 161.812 33.17 Q 160.112 38.438 158.35 42.25 Q 156.371 46.532 154.314 49.494 A 26.828 26.828 0 0 1 152.7 51.6 Q 150.338 54.369 147.844 55.745 A 11.875 11.875 0 0 1 146.7 56.3 Q 143.6 57.6 140.4 57.7 A 43.761 43.761 0 0 0 147.826 62.128 A 53.663 53.663 0 0 0 152.3 64 Q 159.1 66.5 166.6 66.5 Z M 245.829 67.389 A 2.613 2.613 0 0 0 247.5 68 A 2.556 2.556 0 0 0 247.778 67.984 Q 248.482 67.907 249.403 67.452 A 10.999 10.999 0 0 0 250.3 66.95 Q 251.363 66.294 252.523 65.266 A 27.027 27.027 0 0 0 253.95 63.9 A 32.931 32.931 0 0 0 254.21 63.631 Q 256.039 61.711 258 59.05 A 41.871 41.871 0 0 0 259.799 56.394 A 53.358 53.358 0 0 0 262 52.5 A 34.898 34.898 0 0 0 261.817 53.025 A 31.43 31.43 0 0 0 260.55 58.05 A 36.563 36.563 0 0 0 260.259 60.227 A 29.2 29.2 0 0 0 260.1 63.2 A 9.703 9.703 0 0 0 260.125 63.914 Q 260.18 64.658 260.354 65.284 A 4.654 4.654 0 0 0 261 66.7 A 3.813 3.813 0 0 0 261.506 67.299 A 2.391 2.391 0 0 0 263.2 68 Q 264.355 68 265.58 67.284 A 8.563 8.563 0 0 0 266.75 66.45 Q 268.6 64.9 270 62.8 A 1.425 1.425 0 0 0 270.038 62.694 Q 270.167 62.278 269.9 62.1 A 0.667 0.667 0 0 0 269.792 62.041 Q 269.609 61.963 269.427 62.033 A 0.651 0.651 0 0 0 269.3 62.1 A 17.525 17.525 0 0 1 269.019 62.483 Q 268.159 63.62 267.3 64.35 A 6.448 6.448 0 0 1 267.224 64.414 Q 266.653 64.884 266.149 65.073 A 1.848 1.848 0 0 1 265.5 65.2 A 1.436 1.436 0 0 1 264.415 64.763 Q 263.913 64.239 263.763 63.088 A 8.499 8.499 0 0 1 263.7 62 A 38.049 38.049 0 0 1 263.758 59.872 A 30.417 30.417 0 0 1 264.05 57 Q 264.4 54.7 265.1 52.5 A 29.792 29.792 0 0 1 265.401 51.604 A 33.577 33.577 0 0 1 266.9 48.05 Q 268 45.8 269.4 43.2 Q 269.8 42.4 268.5 42.4 Q 267.5 42.4 266.65 42.95 A 4.5 4.5 0 0 0 266.446 43.09 Q 265.763 43.588 265.5 44.2 Q 263.7 47.9 261.55 51.5 A 92.546 92.546 0 0 1 259.678 54.506 A 71.847 71.847 0 0 1 257.3 57.95 Q 255.2 60.8 253.25 62.55 A 13.499 13.499 0 0 1 252.629 63.076 Q 251.087 64.3 250 64.3 A 1.393 1.393 0 0 1 249.008 63.935 Q 248.3 63.271 248.3 61.4 Q 248.3 56.9 250.25 51.95 Q 252.2 47 255.4 42.9 Q 255.459 42.665 255.397 42.465 A 0.765 0.765 0 0 0 255.25 42.2 Q 255.035 41.942 254.71 41.98 A 0.857 0.857 0 0 0 254.6 42 Q 253.4 42.6 252.05 43.45 Q 250.7 44.3 249.45 45.2 Q 248.2 46.1 247.1 47 Q 246 47.9 245.3 48.6 A 0.646 0.646 0 0 0 245.267 48.806 Q 245.267 48.934 245.316 49.071 A 1.15 1.15 0 0 0 245.4 49.25 Q 245.575 49.556 245.827 49.441 A 0.529 0.529 0 0 0 245.9 49.4 A 16.306 16.306 0 0 1 246.297 49.017 Q 246.981 48.377 247.9 47.65 A 79.147 79.147 0 0 1 248.786 46.959 A 66.377 66.377 0 0 1 250.2 45.9 Q 248.8 48 247.7 50.4 Q 246.6 52.8 245.85 55.2 Q 245.1 57.6 244.65 59.75 A 26.714 26.714 0 0 0 244.472 60.68 Q 244.342 61.433 244.274 62.109 A 13.984 13.984 0 0 0 244.2 63.5 Q 244.2 64.289 244.356 64.961 A 4.411 4.411 0 0 0 245.2 66.75 A 4.079 4.079 0 0 0 245.829 67.389 Z M 291.9 43.4 A 0.598 0.598 0 0 0 291.909 43.359 Q 291.974 42.99 291.5 42.8 Q 289.5 42.8 287.7 42.85 Q 285.9 42.9 284.1 42.9 Q 285.6 39.5 287.25 36.3 A 74.382 74.382 0 0 1 288.599 33.799 A 59.647 59.647 0 0 1 290.6 30.5 A 0.494 0.494 0 0 0 290.602 30.493 Q 290.68 30.248 290.417 30.173 A 0.785 0.785 0 0 0 290.3 30.15 Q 290.003 30.113 289.541 30.186 A 6.409 6.409 0 0 0 289.2 30.25 A 4.163 4.163 0 0 0 288.442 30.494 A 5.654 5.654 0 0 0 287.75 30.85 Q 287 31.3 286.4 31.9 A 73.612 73.612 0 0 0 285.35 33.763 A 90.018 90.018 0 0 0 283.6 37.15 Q 282.2 40 280.8 43.1 L 280.05 43.1 A 2.879 2.879 0 0 0 279.861 43.107 Q 279.716 43.116 279.55 43.14 A 6.28 6.28 0 0 0 279.2 43.2 Q 278.4 43.2 277.5 43.55 A 13.302 13.302 0 0 0 277.385 43.595 Q 276.558 43.926 275.95 44.3 A 5.489 5.489 0 0 0 275.924 44.316 Q 275.515 44.571 275.269 44.825 A 1.674 1.674 0 0 0 275.05 45.1 Q 274.8 45.5 275.3 45.6 A 144.414 144.414 0 0 1 275.856 45.5 A 164.088 164.088 0 0 1 277.6 45.2 Q 278.8 45 280.1 44.8 A 116.138 116.138 0 0 0 279.094 47.431 A 100.902 100.902 0 0 0 276.6 55.1 A 49.772 49.772 0 0 0 275.832 58.198 Q 275.523 59.656 275.365 60.93 A 20.184 20.184 0 0 0 275.2 63.4 A 6.402 6.402 0 0 0 275.231 64.037 A 4.968 4.968 0 0 0 276.25 66.65 Q 276.974 67.581 278.244 67.87 A 5.662 5.662 0 0 0 279.5 68 A 1.955 1.955 0 0 0 279.654 67.994 Q 280.108 67.958 280.713 67.716 A 7.807 7.807 0 0 0 281.3 67.45 Q 282.4 66.9 283.6 66 A 15.498 15.498 0 0 0 284.493 65.276 A 18.663 18.663 0 0 0 285.95 63.85 Q 287.1 62.6 288 61.2 A 1.366 1.366 0 0 0 288.017 61.094 Q 288.067 60.673 287.8 60.45 A 0.838 0.838 0 0 0 287.772 60.428 Q 287.486 60.209 287.2 60.4 A 23.189 23.189 0 0 1 286.086 61.925 Q 284.637 63.737 283.303 64.481 A 3.694 3.694 0 0 1 281.5 65 A 3.632 3.632 0 0 1 281.191 64.987 Q 279.395 64.834 279.007 62.84 A 6.521 6.521 0 0 1 278.9 61.6 A 13.867 13.867 0 0 1 278.9 61.567 Q 278.905 59.515 279.514 56.719 A 46.262 46.262 0 0 1 280.2 54 A 86.57 86.57 0 0 1 281.273 50.494 A 103.558 103.558 0 0 1 283.5 44.4 Q 285.5 44.2 287.45 44.1 Q 289.4 44 291 43.9 A 2.873 2.873 0 0 0 291.197 43.869 Q 291.52 43.805 291.697 43.68 A 0.484 0.484 0 0 0 291.9 43.4 Z M 238.691 61.633 A 0.365 0.365 0 0 0 238.6 61.7 Q 237.058 63.683 235.947 64.56 A 4.424 4.424 0 0 1 235.2 65.05 A 4.677 4.677 0 0 1 235.085 65.105 Q 233.878 65.669 233.4 65 A 1.593 1.593 0 0 1 233.336 64.895 Q 232.814 63.964 233.05 61.65 Q 233.198 60.195 233.576 58.476 A 44.166 44.166 0 0 1 234.2 56 A 35.436 35.436 0 0 1 234.98 53.572 A 42.937 42.937 0 0 1 236.75 49.4 Q 238.4 46 240.7 43.2 A 1.238 1.238 0 0 0 240.702 43.194 Q 240.897 42.7 240.4 42.7 A 3.667 3.667 0 0 0 240.27 42.702 Q 239.425 42.732 238.45 43.15 Q 237.794 43.431 237.313 43.732 A 4.682 4.682 0 0 0 236.8 44.1 Q 235.7 43.3 234.4 42.9 Q 233.628 42.663 232.68 42.566 A 13.654 13.654 0 0 0 231.3 42.5 Q 228 42.5 225 44.1 Q 222 45.7 219.7 48.35 Q 217.4 51 216.05 54.25 A 19.312 19.312 0 0 0 215.877 54.682 A 16.82 16.82 0 0 0 214.7 60.8 A 20.808 20.808 0 0 0 214.705 61.27 Q 214.781 64.613 215.95 66.25 A 5.276 5.276 0 0 0 216.588 66.995 A 3.385 3.385 0 0 0 219 68 A 8.14 8.14 0 0 0 220.949 67.298 Q 221.935 66.802 222.945 66.017 A 18.86 18.86 0 0 0 224.8 64.35 A 39.501 39.501 0 0 0 227.368 61.461 A 49.83 49.83 0 0 0 230.5 57.1 A 30.845 30.845 0 0 0 230.19 58.269 A 26.291 26.291 0 0 0 229.65 61.15 Q 229.476 62.506 229.496 63.668 A 12.353 12.353 0 0 0 229.55 64.65 Q 229.64 65.582 229.875 66.28 A 4.049 4.049 0 0 0 230.25 67.1 Q 230.8 68 231.7 68 Q 233.1 68 235.15 66.6 A 11.737 11.737 0 0 0 236.22 65.77 Q 237.747 64.445 239.3 62.3 A 0.893 0.893 0 0 0 239.317 62.215 Q 239.35 61.991 239.244 61.837 A 0.529 0.529 0 0 0 239.1 61.7 Q 238.864 61.543 238.691 61.633 Z M 64.919 23.332 A 77.205 77.205 0 0 0 63.3 28.9 A 245.079 245.079 0 0 1 62.873 30.494 Q 61.37 36.026 59.759 40.91 A 145.219 145.219 0 0 1 56.4 50.1 A 14.624 14.624 0 0 1 54.121 49.793 A 10.345 10.345 0 0 1 48.4 46.5 A 10.212 10.212 0 0 1 47.28 44.953 Q 45.5 41.944 45.5 37.4 A 21.742 21.742 0 0 1 45.972 32.939 A 26.815 26.815 0 0 1 47.65 27.75 A 30.402 30.402 0 0 1 48.677 25.618 A 33.284 33.284 0 0 1 53.75 18.55 A 33.419 33.419 0 0 1 56.38 16.016 A 37.911 37.911 0 0 1 63.3 11.3 A 33.342 33.342 0 0 1 66.974 9.612 A 37.771 37.771 0 0 1 75.8 7.4 A 15.723 15.723 0 0 0 75.048 7.869 Q 73.04 9.202 71.284 11.237 A 26.55 26.55 0 0 0 68.6 15 A 34.256 34.256 0 0 0 66.887 18.29 Q 65.842 20.575 64.919 23.332 Z M 210.981 48.788 A 3.548 3.548 0 0 0 211.6 46.8 A 4.065 4.065 0 0 0 211.189 44.998 A 4.886 4.886 0 0 0 210.3 43.75 A 4.423 4.423 0 0 0 209.072 42.839 A 4.389 4.389 0 0 0 207.1 42.4 A 7.399 7.399 0 0 0 204.331 42.938 A 9.221 9.221 0 0 0 202.15 44.2 A 16.216 16.216 0 0 0 200.398 45.759 A 19.255 19.255 0 0 0 198 48.8 A 25.067 25.067 0 0 0 197.778 49.152 A 26.879 26.879 0 0 0 195.1 54.95 A 23.708 23.708 0 0 0 194.388 57.614 A 18.463 18.463 0 0 0 194 61.3 A 11.803 11.803 0 0 0 194.039 62.28 Q 194.125 63.312 194.4 64.161 A 5.401 5.401 0 0 0 195.65 66.3 A 5.392 5.392 0 0 0 197.875 67.697 A 6.498 6.498 0 0 0 199.9 68 Q 202.7 68 205.25 66.35 A 18.16 18.16 0 0 0 205.487 66.194 A 16.007 16.007 0 0 0 209.5 62.4 A 1.225 1.225 0 0 0 209.518 62.363 Q 209.691 61.986 209.5 61.7 A 0.526 0.526 0 0 0 209.464 61.652 Q 209.295 61.453 209.006 61.554 A 0.928 0.928 0 0 0 208.9 61.6 Q 207.5 63.3 205.75 64.3 Q 204 65.3 202 65.3 A 4.531 4.531 0 0 1 201.774 65.294 Q 200.698 65.241 199.897 64.669 A 3.881 3.881 0 0 1 198.9 63.6 A 6.053 6.053 0 0 1 198.89 63.584 Q 197.8 61.888 197.8 59.4 Q 197.8 58.1 197.85 57 Q 197.9 55.9 198 54.8 A 94.718 94.718 0 0 0 199.334 54.444 A 84.161 84.161 0 0 0 203.15 53.3 A 37.168 37.168 0 0 0 205.326 52.517 A 27.809 27.809 0 0 0 207.5 51.55 A 14.825 14.825 0 0 0 207.901 51.342 Q 208.669 50.928 209.293 50.47 A 8.262 8.262 0 0 0 210.5 49.4 A 4.916 4.916 0 0 0 210.981 48.788 Z M 223.408 63.583 A 12.394 12.394 0 0 0 224.05 63.05 Q 225.8 61.5 227.7 59 A 52.229 52.229 0 0 0 229.939 55.802 A 65.518 65.518 0 0 0 231.45 53.35 Q 233.3 50.2 234.7 47 A 3.274 3.274 0 0 0 233.689 45.479 A 4.792 4.792 0 0 0 232.85 44.9 Q 231.4 44.1 229.5 44.1 Q 227.3 44.1 225.35 45.25 Q 223.4 46.4 221.9 48.45 A 15.567 15.567 0 0 0 220.259 51.305 A 19.578 19.578 0 0 0 219.5 53.3 A 18.662 18.662 0 0 0 218.716 57.134 A 23.416 23.416 0 0 0 218.6 59.5 A 10.664 10.664 0 0 0 218.705 61.045 Q 218.826 61.868 219.085 62.553 A 5.618 5.618 0 0 0 219.35 63.15 Q 219.757 63.937 220.268 64.297 A 1.585 1.585 0 0 0 221.2 64.6 Q 222.091 64.6 223.408 63.583 Z M 205 45 A 5.057 5.057 0 0 0 201.771 46.172 A 7.333 7.333 0 0 0 200.9 47 Q 199.136 48.96 198.332 53.131 A 26.865 26.865 0 0 0 198.3 53.3 Q 203.1 52.6 205.35 51.25 Q 207.6 49.9 207.6 48.2 A 4.592 4.592 0 0 0 207.493 47.183 A 3.219 3.219 0 0 0 206.9 45.9 A 2.239 2.239 0 0 0 205.265 45.012 A 2.988 2.988 0 0 0 205 45 Z" vector-effect="non-scaling-stroke"/></g></svg>